<svg width="63" height="50" viewBox="0 0 63 50" fill="none" xmlns="http://www.w3.org/2000/svg">
<path d="M7.18968 49.6983L7.23959 49.3679L7.21741 49.3457C7.16565 49.3873 7.10003 49.4354 7.02239 49.491C6.94753 49.5437 6.8625 49.5937 6.76546 49.6418C6.67211 49.6872 6.56767 49.726 6.45214 49.7594C6.34123 49.7936 6.21831 49.8103 6.0843 49.8103C5.86433 49.8103 5.66008 49.7751 5.46968 49.7038C5.28391 49.6335 5.1194 49.5252 4.97799 49.3799C4.84028 49.23 4.73215 49.0439 4.65451 48.82C4.57595 48.5932 4.53714 48.3248 4.53714 48.0147C4.53714 47.7056 4.57595 47.4391 4.65451 47.2151C4.73215 46.9883 4.84028 46.8014 4.97799 46.6561C5.1194 46.5071 5.28391 46.3969 5.46968 46.3266C5.66008 46.2553 5.86433 46.2201 6.0843 46.2201C6.21831 46.2201 6.34123 46.2387 6.45214 46.2757C6.56397 46.3099 6.66472 46.3525 6.75437 46.4043C6.84309 46.4571 6.92165 46.5108 6.98912 46.5672C7.05567 46.6227 7.10742 46.6727 7.14532 46.7181L7.17859 46.707C7.18968 46.6468 7.20447 46.5718 7.22295 46.483C7.24144 46.3932 7.26639 46.3229 7.29597 46.2701C7.13977 46.1998 6.95862 46.1396 6.75437 46.0915C6.55288 46.0397 6.33014 46.0128 6.0843 46.0128C5.77468 46.0128 5.49187 46.0582 5.23493 46.147C4.97799 46.2368 4.7571 46.3673 4.57041 46.5385C4.38833 46.7107 4.24508 46.9208 4.14064 47.1707C4.0399 47.4169 3.98999 47.6982 3.98999 48.0147C3.98999 48.3322 4.0399 48.6154 4.14064 48.8653C4.24508 49.1106 4.38649 49.3197 4.56486 49.491C4.74786 49.6631 4.96321 49.7918 5.21275 49.8769C5.46229 49.9593 5.73401 50 6.02792 50C6.16563 50 6.2978 49.9889 6.42442 49.9667C6.55104 49.9445 6.66472 49.9195 6.76546 49.8936C6.8699 49.8639 6.95677 49.8325 7.02794 49.7992C7.10188 49.7612 7.15641 49.7279 7.18968 49.6983Z" fill="#00604D"/>
<path fill-rule="evenodd" clip-rule="evenodd" d="M11.7419 48.0147C11.7419 48.3239 11.7031 48.5923 11.6246 48.82C11.5469 49.0439 11.4369 49.23 11.2955 49.379C11.1578 49.5243 10.9933 49.6326 10.8038 49.7038C10.6181 49.7742 10.4147 49.8093 10.1948 49.8093C9.97943 49.8093 9.7761 49.7742 9.58663 49.7038C9.40086 49.6326 9.23634 49.5243 9.09494 49.379C8.95723 49.23 8.84909 49.0439 8.77146 48.82C8.6929 48.5923 8.65408 48.3239 8.65408 48.0147C8.65408 47.7056 8.6929 47.4391 8.77146 47.2151C8.84909 46.9874 8.95723 46.8014 9.09494 46.6561C9.23634 46.5071 9.40086 46.3969 9.58663 46.3257C9.7761 46.2553 9.97943 46.2201 10.1948 46.2201C10.4147 46.2201 10.6181 46.2553 10.8038 46.3257C10.9933 46.3969 11.1578 46.5071 11.2955 46.6561C11.4369 46.8014 11.5469 46.9874 11.6246 47.2151C11.7031 47.4391 11.7419 47.7056 11.7419 48.0147ZM8.10693 48.0147C8.10693 48.3313 8.15684 48.6145 8.25758 48.8644C8.36202 49.1106 8.50528 49.3197 8.68735 49.491C8.87312 49.6622 9.09494 49.7908 9.35187 49.8769C9.60881 49.9593 9.88978 50 10.1948 50C10.5044 50 10.7872 49.9593 11.0441 49.8769C11.3011 49.7908 11.5201 49.6622 11.7031 49.491C11.8889 49.3197 12.0321 49.1106 12.1329 48.8644C12.2373 48.6145 12.2891 48.3313 12.2891 48.0147C12.2891 47.6982 12.2373 47.4169 12.1329 47.1707C12.0321 46.9208 11.8889 46.7097 11.7031 46.5385C11.5201 46.3673 11.3011 46.2368 11.0441 46.147C10.7872 46.0573 10.5044 46.0128 10.1948 46.0128C9.88978 46.0128 9.60881 46.0573 9.35187 46.147C9.09494 46.2368 8.87312 46.3673 8.68735 46.5385C8.50528 46.7097 8.36202 46.9208 8.25758 47.1707C8.15684 47.4169 8.10693 47.6982 8.10693 48.0147Z" fill="#00604D"/>
<path d="M16.3711 47.9028C16.3711 48.0184 16.3693 48.1452 16.3656 48.2831C16.3619 48.421 16.3489 48.559 16.3268 48.6969C16.3046 48.8348 16.2667 48.9671 16.2149 49.0939C16.1659 49.2207 16.0975 49.3327 16.0079 49.4289C15.9192 49.5261 15.8036 49.6048 15.6622 49.664C15.5245 49.7233 15.3526 49.7538 15.1484 49.7538C14.9395 49.7538 14.7648 49.7297 14.6234 49.6807C14.482 49.6289 14.3646 49.5594 14.2713 49.4743C14.1788 49.3845 14.1058 49.2818 14.0541 49.1661C14.0051 49.0476 13.97 48.9245 13.9478 48.7977C13.9256 48.6672 13.9127 48.5349 13.909 48.3998C13.9053 48.2628 13.9025 48.1304 13.9025 48.0036C13.9025 47.7945 13.9053 47.5936 13.909 47.3993C13.9127 47.2058 13.9182 47.0244 13.9256 46.8569C13.933 46.6894 13.9404 46.5404 13.9478 46.4099C13.9552 46.2757 13.9626 46.1674 13.97 46.085C13.9293 46.0924 13.8877 46.0998 13.847 46.1072C13.8101 46.1109 13.7713 46.1128 13.7297 46.1128C13.6853 46.1128 13.6363 46.1109 13.5846 46.1072C13.5328 46.0998 13.4838 46.0924 13.4395 46.085C13.4468 46.2525 13.4542 46.458 13.4616 46.7005C13.469 46.943 13.4727 47.2206 13.4727 47.5335C13.4727 47.6751 13.4672 47.8148 13.4561 47.9527C13.4487 48.0869 13.445 48.2415 13.445 48.4173C13.445 48.9653 13.5716 49.366 13.8249 49.6196C14.0781 49.8732 14.4838 50 15.0421 50C15.2953 50 15.519 49.9639 15.7121 49.8936C15.9099 49.8223 16.0754 49.7177 16.2094 49.5798C16.3434 49.4428 16.446 49.2744 16.5162 49.0772C16.5911 48.8792 16.6299 48.6552 16.6336 48.4062C16.6373 48.2008 16.6428 47.9898 16.6502 47.7741C16.6576 47.5538 16.665 47.3419 16.6724 47.1364C16.6798 46.9272 16.6891 46.7338 16.7011 46.5552C16.7122 46.3719 16.7232 46.2155 16.7343 46.085C16.6706 46.1045 16.6151 46.1128 16.5661 46.1128C16.5292 46.1128 16.4922 46.1109 16.4552 46.1072C16.4173 46.0998 16.3785 46.0924 16.3378 46.085C16.3526 46.1933 16.3619 46.3904 16.3656 46.6783C16.3693 46.9652 16.3711 47.3734 16.3711 47.9028Z" fill="#00604D"/>
<path d="M21.3419 50H21.4196V49.8158C21.4196 49.726 21.4177 49.6215 21.414 49.5021C21.414 49.379 21.4122 49.2485 21.4085 49.1106C21.4085 48.969 21.4066 48.8292 21.4029 48.6913V48.2943V47.9592C21.4029 47.8509 21.4066 47.7075 21.414 47.5288C21.4223 47.3493 21.4297 47.167 21.4371 46.98C21.4482 46.794 21.4574 46.619 21.4648 46.4543C21.4759 46.2905 21.4852 46.1674 21.4926 46.0859C21.4177 46.1045 21.3586 46.1137 21.3142 46.1137C21.2615 46.1137 21.1987 46.1045 21.1238 46.0859C21.1423 46.4136 21.1543 46.7644 21.158 47.1373C21.1654 47.5057 21.1691 47.8861 21.1691 48.2776V49.0384C20.9972 48.8662 20.7966 48.6598 20.5656 48.4173C20.3382 48.1712 20.097 47.912 19.84 47.6399C19.5868 47.3641 19.3299 47.0864 19.0692 46.8069C18.8123 46.5237 18.5701 46.259 18.3428 46.0128H18.2541C18.2615 46.1396 18.2652 46.3312 18.2652 46.5885C18.2688 46.8458 18.2707 47.154 18.2707 47.5113C18.2707 47.6344 18.2688 47.7741 18.2652 47.9305C18.2615 48.0879 18.2559 48.248 18.2485 48.4118C18.2448 48.5756 18.2374 48.7394 18.2263 48.9042C18.218 49.068 18.2106 49.2207 18.2032 49.3623C18.1958 49.5002 18.1866 49.6196 18.1755 49.7205C18.1681 49.8214 18.1607 49.8899 18.1533 49.9269C18.2162 49.9195 18.2855 49.9158 18.3603 49.9158C18.4306 49.9158 18.4962 49.9195 18.5554 49.9269C18.5517 49.8973 18.548 49.8417 18.5443 49.7594C18.5406 49.6742 18.5369 49.5752 18.5332 49.4632C18.5295 49.3512 18.5258 49.23 18.5221 49.0995C18.5184 48.969 18.5147 48.8403 18.511 48.7135C18.511 48.5876 18.5091 48.4664 18.5055 48.3498V48.0592C18.5055 47.7574 18.5073 47.5187 18.511 47.3437C18.5147 47.1688 18.5184 47.0291 18.5221 46.9245C19.0055 47.4391 19.4898 47.9574 19.9741 48.4794C20.4574 48.9977 20.914 49.5039 21.3419 50Z" fill="#00604D"/>
<path d="M23.7085 47.5319V48.4935C23.7085 48.7397 23.7029 48.9822 23.6919 49.221C23.6845 49.4588 23.6752 49.6939 23.6641 49.9253C23.7492 49.9179 23.8407 49.9142 23.9377 49.9142C24.0338 49.9142 24.1253 49.9179 24.2113 49.9253C24.2002 49.6939 24.1891 49.4588 24.178 49.221C24.1697 48.9822 24.166 48.7397 24.166 48.4935V47.5319C24.166 47.1441 24.1715 46.7581 24.1835 46.374C24.2797 46.374 24.3804 46.3759 24.4848 46.3796C24.593 46.3796 24.6983 46.3833 24.8028 46.3907C24.9109 46.3944 25.0135 46.4009 25.1106 46.4074C25.2104 46.4157 25.3 46.4249 25.3786 46.4361C25.3592 46.3685 25.3499 46.3111 25.3499 46.2621C25.3499 46.2176 25.3592 46.1584 25.3786 46.0834C25.1327 46.0908 24.8924 46.0982 24.6577 46.1056C24.4229 46.1093 24.1835 46.1112 23.9377 46.1112C23.6919 46.1112 23.4516 46.1093 23.2168 46.1056C22.983 46.0982 22.7427 46.0908 22.4968 46.0834C22.5153 46.1584 22.5246 46.2158 22.5246 46.2565C22.5246 46.3093 22.5153 46.3685 22.4968 46.4361C22.5745 46.4249 22.6623 46.4157 22.7593 46.4074C22.86 46.4009 22.9617 46.3944 23.0662 46.3907C23.1743 46.3833 23.2806 46.3796 23.385 46.3796C23.4922 46.3759 23.5948 46.374 23.6919 46.374C23.7029 46.7581 23.7085 47.1441 23.7085 47.5319Z" fill="#00604D"/>
<path d="M27.3604 48.3577C27.3604 48.6594 27.3586 48.9481 27.3549 49.2239C27.3512 49.5007 27.3383 49.7348 27.3161 49.9292C27.4011 49.9209 27.4926 49.9181 27.5896 49.9181C27.6858 49.9181 27.7773 49.9209 27.8632 49.9292C27.8558 49.8505 27.8484 49.7478 27.841 49.621C27.8373 49.4905 27.8327 49.3507 27.829 49.2017C27.8253 49.049 27.8216 48.8945 27.8179 48.738V48.2956C27.878 48.1809 27.9482 48.0522 28.0305 47.9106C28.1128 47.7644 28.207 47.6024 28.3152 47.4238C28.4233 47.2452 28.5481 47.0453 28.6895 46.825C28.8309 46.6056 28.9908 46.3594 29.1692 46.0873C29.0767 46.1058 29.0037 46.1151 28.952 46.1151C28.8993 46.1151 28.8272 46.1058 28.7338 46.0873C28.6599 46.2474 28.5795 46.4131 28.4935 46.5853C28.4085 46.7528 28.3189 46.9203 28.2264 47.0878C28.1331 47.2563 28.0397 47.4201 27.9464 47.5802C27.854 47.7403 27.7643 47.8875 27.6784 48.0217C27.4852 47.6829 27.3004 47.3562 27.1257 47.0434C26.9547 46.7306 26.7856 46.4113 26.6174 46.0873C26.5656 46.0947 26.5138 46.1021 26.4612 46.1095C26.4131 46.1132 26.3623 46.1151 26.3105 46.1151C26.2588 46.1151 26.2061 46.1132 26.1543 46.1095C26.1063 46.1021 26.0554 46.0947 26.0037 46.0873C26.0406 46.1466 26.0942 46.2363 26.1654 46.3557C26.2356 46.4714 26.3142 46.6038 26.4002 46.7528C26.4889 46.8981 26.5822 47.0527 26.6793 47.2165C26.7763 47.3775 26.8669 47.5321 26.9528 47.6811C27.0416 47.8264 27.122 47.9606 27.1931 48.0837C27.2671 48.2031 27.3235 48.2947 27.3604 48.3577Z" fill="#00604D"/>
<path d="M34.9612 49.6983L35.0111 49.3679L34.9889 49.3457C34.9371 49.3873 34.8715 49.4354 34.7939 49.491C34.719 49.5437 34.634 49.5937 34.5369 49.6418C34.4436 49.6872 34.3392 49.726 34.2236 49.7594C34.1127 49.7936 33.9898 49.8103 33.8558 49.8103C33.6358 49.8103 33.4306 49.7751 33.2412 49.7038C33.0554 49.6335 32.8909 49.5252 32.7495 49.3799C32.6118 49.23 32.5046 49.0439 32.426 48.82C32.3474 48.5932 32.3086 48.3248 32.3086 48.0147C32.3086 47.7056 32.3474 47.4391 32.426 47.2151C32.5046 46.9883 32.6118 46.8014 32.7495 46.6561C32.8909 46.5071 33.0554 46.3969 33.2412 46.3266C33.4306 46.2553 33.6358 46.2201 33.8558 46.2201C33.9898 46.2201 34.1127 46.2387 34.2236 46.2757C34.3355 46.3099 34.4362 46.3525 34.5259 46.4043C34.6155 46.4571 34.6931 46.5108 34.7597 46.5672C34.8272 46.6227 34.8789 46.6727 34.9168 46.7181L34.9501 46.707C34.9612 46.6468 34.976 46.5718 34.9944 46.483C35.0129 46.3932 35.0379 46.3229 35.0675 46.2701C34.9113 46.1998 34.7301 46.1396 34.5259 46.0915C34.3244 46.0397 34.1016 46.0128 33.8558 46.0128C33.5462 46.0128 33.2634 46.0582 33.0064 46.147C32.7495 46.2368 32.5286 46.3673 32.3419 46.5385C32.1598 46.7107 32.0166 46.9208 31.9121 47.1707C31.8114 47.4169 31.7615 47.6982 31.7615 48.0147C31.7615 48.3322 31.8114 48.6154 31.9121 48.8653C32.0166 49.1106 32.158 49.3197 32.3363 49.491C32.5193 49.6631 32.7347 49.7918 32.9842 49.8769C33.2338 49.9593 33.5055 50 33.7994 50C33.9371 50 34.0693 49.9889 34.1959 49.9667C34.3225 49.9445 34.4362 49.9195 34.5369 49.8936C34.6414 49.8639 34.7283 49.8325 34.7994 49.7992C34.8734 49.7612 34.9279 49.7279 34.9612 49.6983Z" fill="#00604D"/>
<path fill-rule="evenodd" clip-rule="evenodd" d="M39.5124 48.0147C39.5124 48.3239 39.4736 48.5923 39.3951 48.82C39.3174 49.0439 39.2074 49.23 39.066 49.379C38.9283 49.5243 38.7638 49.6326 38.5743 49.7038C38.3886 49.7742 38.1852 49.8093 37.9653 49.8093C37.7499 49.8093 37.5466 49.7742 37.3571 49.7038C37.1704 49.6326 37.0069 49.5243 36.8654 49.379C36.7277 49.23 36.6196 49.0439 36.542 48.82C36.4634 48.5923 36.4246 48.3239 36.4246 48.0147C36.4246 47.7056 36.4634 47.4391 36.542 47.2151C36.6196 46.9874 36.7277 46.8014 36.8654 46.6561C37.0069 46.5071 37.1704 46.3969 37.3571 46.3257C37.5466 46.2553 37.7499 46.2201 37.9653 46.2201C38.1852 46.2201 38.3886 46.2553 38.5743 46.3257C38.7638 46.3969 38.9283 46.5071 39.066 46.6561C39.2074 46.8014 39.3174 46.9874 39.3951 47.2151C39.4736 47.4391 39.5124 47.7056 39.5124 48.0147ZM35.8774 48.0147C35.8774 48.3313 35.9273 48.6145 36.0281 48.8644C36.1325 49.1106 36.2758 49.3197 36.4579 49.491C36.6436 49.6622 36.8654 49.7908 37.1224 49.8769C37.3793 49.9593 37.6603 50 37.9653 50C38.2749 50 38.5577 49.9593 38.8146 49.8769C39.0716 49.7908 39.2906 49.6622 39.4736 49.491C39.6594 49.3197 39.8027 49.1106 39.9034 48.8644C40.0078 48.6145 40.0596 48.3313 40.0596 48.0147C40.0596 47.6982 40.0078 47.4169 39.9034 47.1707C39.8027 46.9208 39.6594 46.7097 39.4736 46.5385C39.2906 46.3673 39.0716 46.2368 38.8146 46.147C38.5577 46.0573 38.2749 46.0128 37.9653 46.0128C37.6603 46.0128 37.3793 46.0573 37.1224 46.147C36.8654 46.2368 36.6436 46.3673 36.4579 46.5385C36.2758 46.7097 36.1325 46.9208 36.0281 47.1707C35.9273 47.4169 35.8774 47.6982 35.8774 48.0147Z" fill="#00604D"/>
<path d="M44.1414 47.9028C44.1414 48.0184 44.1395 48.1452 44.1358 48.2831C44.1321 48.421 44.1192 48.559 44.097 48.6969C44.0739 48.8348 44.0369 48.9671 43.9852 49.0939C43.9371 49.2207 43.8678 49.3327 43.7782 49.4289C43.6894 49.5261 43.5739 49.6048 43.4325 49.664C43.2948 49.7233 43.1229 49.7538 42.9186 49.7538C42.7097 49.7538 42.5351 49.7297 42.3937 49.6807C42.2522 49.6289 42.1349 49.5594 42.0415 49.4743C41.9491 49.3845 41.8761 49.2818 41.8243 49.1661C41.7753 49.0476 41.7402 48.9245 41.718 48.7977C41.6959 48.6672 41.6829 48.5349 41.6792 48.3998C41.6746 48.2628 41.6728 48.1304 41.6728 48.0036C41.6728 47.7945 41.6746 47.5936 41.6792 47.3993C41.6829 47.2058 41.6885 47.0244 41.6959 46.8569C41.7033 46.6894 41.7107 46.5404 41.718 46.4099C41.7254 46.2757 41.7328 46.1674 41.7402 46.085C41.6996 46.0924 41.658 46.0998 41.6173 46.1072C41.5803 46.1109 41.5406 46.1128 41.4999 46.1128C41.4556 46.1128 41.4066 46.1109 41.3548 46.1072C41.3031 46.0998 41.2541 46.0924 41.2097 46.085C41.2171 46.2525 41.2245 46.458 41.2319 46.7005C41.2393 46.943 41.243 47.2206 41.243 47.5335C41.243 47.6751 41.2374 47.8148 41.2264 47.9527C41.219 48.0869 41.2153 48.2415 41.2153 48.4173C41.2153 48.9653 41.3419 49.366 41.5951 49.6196C41.8484 49.8732 42.2541 50 42.8123 50C43.0656 50 43.2892 49.9639 43.4824 49.8936C43.6793 49.8223 43.8456 49.7177 43.9796 49.5798C44.1137 49.4428 44.2162 49.2744 44.2865 49.0772C44.3613 48.8792 44.4002 48.6552 44.4039 48.4062C44.4076 48.2008 44.4131 47.9898 44.4205 47.7741C44.4279 47.5538 44.4353 47.3419 44.4427 47.1364C44.4501 46.9272 44.4593 46.7338 44.4704 46.5552C44.4824 46.3719 44.4935 46.2155 44.5046 46.085C44.4408 46.1045 44.3854 46.1128 44.3364 46.1128C44.2994 46.1128 44.2625 46.1109 44.2255 46.1072C44.1876 46.0998 44.1488 46.0924 44.1081 46.085C44.1229 46.1933 44.1321 46.3904 44.1358 46.6783C44.1395 46.9652 44.1414 47.3734 44.1414 47.9028Z" fill="#00604D"/>
<path d="M49.1114 50H49.1891V49.8158C49.1891 49.726 49.1882 49.6215 49.1835 49.5021C49.1835 49.379 49.1817 49.2485 49.178 49.1106C49.178 48.969 49.1761 48.8292 49.1724 48.6913V48.2943V47.9592C49.1724 47.8509 49.1761 47.7075 49.1835 47.5288C49.1919 47.3493 49.1993 47.167 49.2066 46.98C49.2177 46.794 49.227 46.619 49.2344 46.4543C49.2455 46.2905 49.2547 46.1674 49.2621 46.0859C49.1882 46.1045 49.1281 46.1137 49.0837 46.1137C49.031 46.1137 48.9682 46.1045 48.8933 46.0859C48.9118 46.4136 48.9238 46.7644 48.9275 47.1373C48.9349 47.5057 48.9386 47.8861 48.9386 48.2776V49.0384C48.7667 48.8662 48.5662 48.6598 48.3351 48.4173C48.1077 48.1712 47.8665 47.912 47.6096 47.6399C47.3563 47.3641 47.0994 47.0864 46.8388 46.8069C46.5818 46.5237 46.3397 46.259 46.1123 46.0128H46.0236C46.031 46.1396 46.0347 46.3312 46.0347 46.5885C46.0384 46.8458 46.0402 47.154 46.0402 47.5113C46.0402 47.6344 46.0384 47.7741 46.0347 47.9305C46.031 48.0879 46.0254 48.248 46.018 48.4118C46.0144 48.5756 46.007 48.7394 45.9959 48.9042C45.9875 49.068 45.9802 49.2207 45.9728 49.3623C45.9654 49.5002 45.9561 49.6196 45.945 49.7205C45.9376 49.8214 45.9302 49.8899 45.9229 49.9269C45.9857 49.9195 46.055 49.9158 46.1299 49.9158C46.2001 49.9158 46.2648 49.9195 46.3249 49.9269C46.3212 49.8973 46.3175 49.8417 46.3138 49.7594C46.3101 49.6742 46.3064 49.5752 46.3027 49.4632C46.299 49.3512 46.2953 49.23 46.2916 49.0995C46.2879 48.969 46.2842 48.8403 46.2805 48.7135C46.2805 48.5876 46.2787 48.4664 46.275 48.3498V48.0592C46.275 47.7574 46.2768 47.5187 46.2805 47.3437C46.2842 47.1688 46.2879 47.0291 46.2916 46.9245C46.775 47.4391 47.2593 47.9574 47.7436 48.4794C48.227 48.9977 48.6835 49.5039 49.1114 50Z" fill="#00604D"/>
<path d="M53.5891 49.6983L53.6399 49.3679L53.6168 49.3457C53.5651 49.3873 53.4994 49.4354 53.4218 49.491C53.3469 49.5437 53.2619 49.5937 53.1649 49.6418C53.0715 49.6872 52.9671 49.726 52.8525 49.7594C52.7406 49.7936 52.6177 49.8103 52.4837 49.8103C52.2637 49.8103 52.0595 49.7751 51.8691 49.7038C51.6833 49.6335 51.5188 49.5252 51.3774 49.3799C51.2397 49.23 51.1325 49.0439 51.0539 48.82C50.9754 48.5932 50.9365 48.3248 50.9365 48.0147C50.9365 47.7056 50.9754 47.4391 51.0539 47.2151C51.1325 46.9883 51.2397 46.8014 51.3774 46.6561C51.5188 46.5071 51.6833 46.3969 51.8691 46.3266C52.0595 46.2553 52.2637 46.2201 52.4837 46.2201C52.6177 46.2201 52.7406 46.2387 52.8525 46.2757C52.9634 46.3099 53.0641 46.3525 53.1538 46.4043C53.2434 46.4571 53.3211 46.5108 53.3885 46.5672C53.4551 46.6227 53.5068 46.6727 53.5447 46.7181L53.578 46.707C53.5891 46.6468 53.6039 46.5718 53.6224 46.483C53.6409 46.3932 53.6658 46.3229 53.6954 46.2701C53.5392 46.1998 53.358 46.1396 53.1538 46.0915C52.9523 46.0397 52.7296 46.0128 52.4837 46.0128C52.175 46.0128 51.8913 46.0582 51.6343 46.147C51.3774 46.2368 51.1565 46.3673 50.9698 46.5385C50.7877 46.7107 50.6445 46.9208 50.5401 47.1707C50.4393 47.4169 50.3894 47.6982 50.3894 48.0147C50.3894 48.3322 50.4393 48.6154 50.5401 48.8653C50.6445 49.1106 50.7859 49.3197 50.9643 49.491C51.1473 49.6631 51.3626 49.7918 51.6122 49.8769C51.8617 49.9593 52.1334 50 52.4273 50C52.565 50 52.6972 49.9889 52.8238 49.9667C52.9504 49.9445 53.0641 49.9195 53.1649 49.8936C53.2693 49.8639 53.3562 49.8325 53.4274 49.7992C53.5013 49.7612 53.5558 49.7279 53.5891 49.6983Z" fill="#00604D"/>
<path d="M54.8171 47.5319V48.4935C54.8171 48.7397 54.8115 48.9822 54.8004 49.221C54.793 49.4588 54.7838 49.6939 54.7727 49.9253C54.8577 49.9179 54.9492 49.9142 55.0463 49.9142C55.1433 49.9142 55.2339 49.9179 55.3199 49.9253C55.3088 49.6939 55.2977 49.4588 55.2866 49.221C55.2792 48.9822 55.2755 48.7397 55.2755 48.4935V47.5319C55.2755 47.2857 55.2792 47.045 55.2866 46.8109C55.2977 46.5721 55.3088 46.3296 55.3199 46.0834C55.2718 46.0908 55.2247 46.0982 55.1803 46.1056C55.135 46.1093 55.0906 46.1112 55.0463 46.1112C55.0019 46.1112 54.9566 46.1093 54.9123 46.1056C54.867 46.0982 54.8208 46.0908 54.7727 46.0834C54.7838 46.3296 54.793 46.5721 54.8004 46.8109C54.8115 47.045 54.8171 47.2857 54.8171 47.5319Z" fill="#00604D"/>
<path d="M56.7607 47.5319V48.4935C56.7607 48.7397 56.7551 48.9822 56.744 49.221C56.7366 49.4588 56.7274 49.6939 56.7163 49.9253C56.8947 49.9179 57.0657 49.9142 57.2302 49.9142H57.7487H58.2625C58.4335 49.9142 58.6054 49.9179 58.7764 49.9253C58.7579 49.8661 58.7487 49.8152 58.7487 49.7744C58.7487 49.7291 58.7579 49.6735 58.7764 49.6069C58.4973 49.6439 58.2367 49.6661 57.9945 49.6735C57.7524 49.6773 57.5001 49.6791 57.2357 49.6791C57.2311 49.407 57.2283 49.0997 57.2237 48.7564C57.2209 48.4093 57.2182 48.002 57.2182 47.5319C57.2182 47.2857 57.2228 47.045 57.2302 46.8109C57.2413 46.5721 57.2524 46.3296 57.2635 46.0834C57.2145 46.0908 57.1683 46.0982 57.1239 46.1056C57.0786 46.1093 57.0342 46.1112 56.9899 46.1112C56.9455 46.1112 56.9002 46.1093 56.8559 46.1056C56.8106 46.0982 56.7644 46.0908 56.7163 46.0834C56.7274 46.3296 56.7366 46.5721 56.744 46.8109C56.7551 47.045 56.7607 47.2857 56.7607 47.5319Z" fill="#00604D"/>
<path d="M5.18124 35.6077H5.40491C5.50472 35.2791 5.58421 35.0098 5.64428 34.8006C5.7136 34.5813 5.79308 34.3564 5.88366 34.1278C5.59437 33.8982 5.24594 33.7187 4.83743 33.5891C4.44001 33.4595 3.97142 33.3948 3.43444 33.3948C2.98619 33.3948 2.55827 33.4642 2.15069 33.6039C1.75234 33.7437 1.39836 33.9482 1.08967 34.2166C0.7819 34.4859 0.532357 34.8201 0.343814 35.219C0.164513 35.6179 0.0748626 36.076 0.0748626 36.5943C0.0748626 37.1626 0.183922 37.6309 0.402965 38.0002C0.622008 38.3584 0.89558 38.6629 1.22461 38.9118C1.55271 39.1608 1.91131 39.3755 2.29949 39.5551C2.68766 39.7244 3.04627 39.904 3.37437 40.0937C3.7034 40.2733 3.97697 40.4824 4.19601 40.7212C4.41505 40.9609 4.52411 41.2691 4.52411 41.6486C4.52411 42.0669 4.37993 42.4261 4.09157 42.725C3.81245 43.0239 3.37437 43.1739 2.77732 43.1739C2.47879 43.1739 2.20984 43.1341 1.97139 43.0536C1.73201 42.9638 1.52775 42.8444 1.35862 42.6954C1.18949 42.5454 1.04993 42.3761 0.940868 42.1863C0.831808 41.9874 0.756946 41.7782 0.717204 41.5588H0.433464C0.383556 41.8976 0.323481 42.2113 0.254164 42.501C0.183922 42.7898 0.099817 43.1091 0 43.458C0.219043 43.6274 0.537903 43.7671 0.955655 43.8764C1.38357 43.9957 1.86602 44.0559 2.40393 44.0559C3.00098 44.0559 3.53888 43.9809 4.01671 43.831C4.5047 43.6718 4.92246 43.4478 5.27089 43.1581C5.61933 42.8592 5.88828 42.5056 6.07682 42.0966C6.26629 41.6782 6.36056 41.2201 6.36056 40.7212C6.36056 40.153 6.24596 39.6893 6.01767 39.3311C5.79863 38.9618 5.51951 38.6527 5.18124 38.4037C4.84297 38.1446 4.47975 37.9308 4.09157 37.7605C3.7034 37.5809 3.34017 37.3967 3.00098 37.2079C2.66271 37.0182 2.37897 36.809 2.15069 36.5795C1.93072 36.3407 1.82166 36.0362 1.82166 35.6678C1.82166 35.3087 1.96584 34.995 2.2542 34.7257C2.54348 34.4563 2.91687 34.3221 3.37437 34.3221C4.26071 34.3221 4.86238 34.7507 5.18124 35.6077Z" fill="#00604D"/>
<path d="M14.7371 44.0549C16.1808 44.0549 17.2751 43.681 18.0218 42.9332C18.7686 42.1761 19.142 40.9303 19.142 39.1959C19.142 38.5471 19.1466 37.9344 19.1568 37.356C19.1771 36.7683 19.1965 36.2351 19.2159 35.7566C19.2363 35.268 19.2566 34.8395 19.276 34.4702C19.2964 34.1018 19.3158 33.8075 19.3361 33.5881C19.2067 33.6085 19.0819 33.6279 18.9627 33.6483C18.8435 33.6585 18.7187 33.6631 18.5893 33.6631C18.4793 33.6631 18.3601 33.6585 18.2307 33.6483C18.1013 33.6279 17.9673 33.6085 17.8278 33.5881C17.8675 34.2767 17.8971 34.9644 17.9174 35.6521C17.9377 36.3296 17.947 37.0126 17.947 37.7003C17.947 38.3981 17.9276 39.071 17.8878 39.7188C17.8481 40.3565 17.7381 40.9248 17.5588 41.4237C17.3897 41.9216 17.1364 42.3205 16.7972 42.6194C16.459 42.9184 15.9913 43.0683 15.3943 43.0683C14.9063 43.0683 14.4783 43.0183 14.1096 42.9184C13.7417 42.8194 13.4284 42.6194 13.1687 42.3205C12.9201 42.0114 12.7315 41.5782 12.6021 41.0201C12.4728 40.462 12.4081 39.729 12.4081 38.822C12.4081 37.965 12.4173 37.1218 12.4376 36.2944C12.458 35.4577 12.5171 34.5553 12.6169 33.5881C12.4173 33.6085 12.214 33.6279 12.0051 33.6483C11.7953 33.6585 11.591 33.6631 11.3923 33.6631C11.1936 33.6631 10.9894 33.6585 10.7805 33.6483C10.5707 33.6279 10.3674 33.6085 10.1677 33.5881C10.1881 33.838 10.2028 34.2119 10.213 34.7099C10.2232 35.2087 10.2278 35.8612 10.2278 36.6683C10.2278 36.9376 10.2232 37.1968 10.213 37.4457V38.2232C10.213 38.4925 10.2075 38.7868 10.1982 39.1061V40.1677C10.1982 40.8748 10.3119 41.4783 10.5411 41.9771C10.7805 42.4649 11.104 42.8684 11.5116 43.1877C11.9201 43.4968 12.3979 43.7162 12.945 43.8458C13.5024 43.9855 14.0994 44.0549 14.7371 44.0549Z" fill="#00604D"/>
<path fill-rule="evenodd" clip-rule="evenodd" d="M26.0863 39.1506L28.7592 43.8606C28.9884 43.8402 29.2121 43.831 29.4311 43.831H30.1178H30.7897C31.0088 43.831 31.2324 43.8402 31.4616 43.8606C30.9145 43.0332 30.3664 42.2011 29.8193 41.3635C29.2721 40.5157 28.7592 39.6689 28.2814 38.8211C29.0281 38.6323 29.6002 38.3084 29.9986 37.8493C30.3969 37.3912 30.5956 36.7979 30.5956 36.0704C30.5956 35.6215 30.506 35.2375 30.3267 34.9191C30.1576 34.5896 29.9237 34.3156 29.6252 34.0963C29.4958 34.0065 29.3562 33.9325 29.2074 33.8723C29.0679 33.8029 28.8988 33.7474 28.6991 33.7076C28.5106 33.6678 28.2814 33.6381 28.0124 33.6178C27.7435 33.5983 27.42 33.5882 27.042 33.5882C26.5346 33.5882 26.1066 33.603 25.7582 33.6335C25.4199 33.6529 25.1159 33.6631 24.8469 33.6631C24.5983 33.6631 24.3746 33.6576 24.175 33.6483C23.9763 33.628 23.7924 33.6085 23.6223 33.5882C23.663 34.236 23.6926 34.8839 23.712 35.5318C23.7323 36.1704 23.7425 36.9025 23.7425 37.7299V39.7633C23.7425 40.5907 23.7323 41.3284 23.712 41.9762C23.6926 42.6148 23.663 43.2423 23.6223 43.8606C23.7924 43.8402 23.9763 43.831 24.175 43.831H24.8469H25.5188C25.7185 43.831 25.9024 43.8402 26.0715 43.8606C26.0318 43.2423 26.0022 42.6148 25.9819 41.9762C25.9615 41.3284 25.9523 40.5907 25.9523 39.7633V39.1506H26.0863ZM28.3109 36.399C28.3109 37.1172 28.1372 37.6549 27.7887 38.014C27.4403 38.363 26.9375 38.5379 26.2804 38.5379H26.1159C26.0669 38.5277 26.0115 38.5175 25.9523 38.5073C25.9523 37.1524 25.9671 35.7965 25.9967 34.4406C26.4052 34.4406 26.7536 34.46 27.042 34.5007C27.3405 34.5405 27.5799 34.6303 27.7583 34.7691C27.9477 34.8987 28.0873 35.0931 28.1769 35.3522C28.2666 35.6123 28.3109 35.9603 28.3109 36.399Z" fill="#00604D"/>
<path fill-rule="evenodd" clip-rule="evenodd" d="M37.15 39.1506L39.8229 43.8606C40.0521 43.8402 40.2758 43.831 40.4948 43.831H41.1815H41.8535C42.0725 43.831 42.2962 43.8402 42.5254 43.8606C41.9782 43.0332 41.4302 42.2011 40.883 41.3635C40.3359 40.5157 39.8229 39.6689 39.3451 38.8211C40.0919 38.6323 40.664 38.3084 41.0623 37.8493C41.4597 37.3912 41.6594 36.7979 41.6594 36.0704C41.6594 35.6215 41.5697 35.2375 41.3904 34.9191C41.2213 34.5896 40.9874 34.3156 40.6889 34.0963C40.5595 34.0065 40.42 33.9325 40.2712 33.8723C40.1316 33.8029 39.9625 33.7474 39.7628 33.7076C39.5743 33.6678 39.3451 33.6381 39.0761 33.6178C38.8072 33.5983 38.4837 33.5882 38.1057 33.5882C37.5983 33.5882 37.1704 33.603 36.8219 33.6335C36.4827 33.6529 36.1796 33.6631 35.9106 33.6631C35.662 33.6631 35.4384 33.6576 35.2387 33.6483C35.04 33.628 34.8561 33.6085 34.686 33.5882C34.7267 34.236 34.7563 34.8839 34.7757 35.5318C34.796 36.1704 34.8062 36.9025 34.8062 37.7299V39.7633C34.8062 40.5907 34.796 41.3284 34.7757 41.9762C34.7563 42.6148 34.7267 43.2423 34.686 43.8606C34.8561 43.8402 35.04 43.831 35.2387 43.831H35.9106H36.5826C36.7822 43.831 36.9661 43.8402 37.1352 43.8606C37.0955 43.2423 37.065 42.6148 37.0456 41.9762C37.0253 41.3284 37.016 40.5907 37.016 39.7633V39.1506H37.15ZM39.3747 36.399C39.3747 37.1172 39.2009 37.6549 38.8525 38.014C38.504 38.363 38.0013 38.5379 37.3441 38.5379H37.1796C37.1297 38.5277 37.0752 38.5175 37.016 38.5073C37.016 37.1524 37.0308 35.7965 37.0604 34.4406C37.4689 34.4406 37.8173 34.46 38.1057 34.5007C38.4042 34.5405 38.6436 34.6303 38.822 34.7691C39.0114 34.8987 39.151 35.0931 39.2406 35.3522C39.3303 35.6123 39.3747 35.9603 39.3747 36.399Z" fill="#00604D"/>
<path d="M45.7345 37.7299V39.7633C45.7345 40.5907 45.7243 41.3284 45.7049 41.9762C45.6846 42.6148 45.655 43.2423 45.6152 43.8606C45.6947 43.8504 45.789 43.8402 45.899 43.8301H46.4064H47.302H48.7807H50.3935C50.7909 43.8402 51.1246 43.8504 51.3935 43.8606C51.3732 43.8004 51.3584 43.7255 51.3482 43.6366C51.339 43.5459 51.3335 43.4219 51.3335 43.2627C51.3335 43.1026 51.339 42.9786 51.3482 42.8888C51.3584 42.799 51.3732 42.6991 51.3935 42.5889C50.8159 42.6593 50.2438 42.7092 49.6763 42.7389C49.1088 42.7685 48.5414 42.7842 47.9739 42.7842C47.9443 42.1854 47.9295 41.5625 47.9295 40.9146V39.9576C47.9397 39.6393 47.9443 39.32 47.9443 39.0006C49.0691 39.0006 50.1994 39.046 51.3335 39.1348C51.314 38.9757 51.2937 38.8563 51.2743 38.7767C51.2641 38.6869 51.2595 38.6017 51.2595 38.5221C51.2595 38.4222 51.2641 38.3278 51.2743 38.238C51.2845 38.1482 51.3039 38.0187 51.3335 37.8493C50.766 37.8789 50.2188 37.9039 49.6911 37.9243C49.1735 37.9446 48.5913 37.9594 47.9443 37.9687V36.3388C47.9545 35.8011 47.9794 35.2578 48.0192 34.7099C48.1282 34.7099 48.3121 34.7145 48.5719 34.7247C48.8306 34.734 49.119 34.7497 49.4379 34.7691C49.766 34.7895 50.0996 34.8089 50.4379 34.8293C50.7863 34.8487 51.1042 34.8691 51.3935 34.8885C51.3732 34.7793 51.3584 34.6794 51.3482 34.5896C51.339 34.4998 51.3335 34.3758 51.3335 34.2157C51.3335 33.9565 51.3538 33.7473 51.3935 33.5882C51.1948 33.6076 50.8057 33.628 50.229 33.6474C49.6615 33.6576 49.0099 33.6631 48.2733 33.6631C47.8251 33.6631 47.3814 33.6529 46.9443 33.6326C46.5062 33.6131 46.0626 33.5983 45.6152 33.5882C45.655 34.236 45.6846 34.8839 45.7049 35.5318C45.7243 36.1695 45.7345 36.9025 45.7345 37.7299Z" fill="#00604D"/>
<path d="M59.2181 38.0742H59.1885C59.0785 37.9048 58.9344 37.6457 58.7551 37.2968C58.5758 36.9478 58.3817 36.5591 58.1728 36.1306C57.9639 35.7021 57.7495 35.2634 57.5304 34.8145C57.3216 34.3656 57.133 33.9574 56.963 33.5882C56.7347 33.6085 56.5101 33.6289 56.2911 33.6483C56.0822 33.6585 55.8631 33.6631 55.6348 33.6631C55.4056 33.6631 55.1811 33.6585 54.9629 33.6483C54.7439 33.6289 54.5193 33.6085 54.291 33.5882C54.4102 33.7983 54.5942 34.137 54.8428 34.6053C55.1016 35.0736 55.3807 35.5975 55.6792 36.175C55.9879 36.7535 56.3012 37.3514 56.6201 37.9696C56.9482 38.5777 57.2375 39.1311 57.4861 39.6291C57.4963 39.8586 57.5009 40.0928 57.5009 40.3325C57.511 40.5611 57.5157 40.7906 57.5157 41.0202C57.5157 41.4986 57.4907 41.9771 57.4417 42.4556C57.3909 42.9341 57.3567 43.4025 57.3364 43.8606C57.5462 43.8412 57.755 43.831 57.9639 43.831H58.6063H59.2329C59.4519 43.831 59.6663 43.8412 59.8752 43.8606C59.805 43.3127 59.7606 42.7898 59.7403 42.2909C59.731 41.793 59.7255 41.2886 59.7255 40.7804C59.7255 40.5315 59.731 40.2871 59.7403 40.0483C59.7505 39.7994 59.756 39.5541 59.756 39.3153C59.9944 38.847 60.2579 38.3389 60.5471 37.7901C60.8457 37.232 61.1396 36.6887 61.4279 36.1602C61.7163 35.6317 61.9852 35.144 62.2339 34.6951C62.4926 34.236 62.7071 33.8677 62.8762 33.5882C62.7468 33.6085 62.622 33.6289 62.5028 33.6483C62.3938 33.6585 62.2791 33.6631 62.1599 33.6631C62.0398 33.6631 61.9205 33.6585 61.8013 33.6483C61.6913 33.6289 61.5823 33.6085 61.4732 33.5882C61.3032 33.9574 61.1294 34.3462 60.9501 34.7543C60.7708 35.1532 60.5869 35.5521 60.3974 35.951C60.2089 36.3499 60.0148 36.734 59.8151 37.1024C59.6164 37.4615 59.4177 37.7854 59.2181 38.0742Z" fill="#00604D"/>
<path d="M39.9211 7.20231C39.8444 8.27499 39.4812 10.997 38.9895 12.4852C37.9812 15.5117 37.3397 17.0712 35.214 19.5276C37.3786 15.2738 37.8462 14.2659 38.6503 10.3139C39.3047 7.09957 38.52 4.30355 37.5255 2.81993C37.2787 2.46083 36.7667 1.78612 36.068 1.26967C35.3526 0.830048 35.4488 0.737494 34.3388 0.388571C33.2768 0.0535297 32.8443 0.0924015 32.396 0.0535297C31.8914 0.015583 32.2666 0.0479755 31.433 -0.000152588L30.2684 0.0637093L29.3793 0.190508L28.2786 0.381166L26.9662 0.720835L25.3793 1.29281L23.9014 2.03046L22.6056 2.83196L21.1583 4.01479L19.8625 5.31238L18.9864 6.47577L18.2618 7.64008L17.6906 8.78403L17.1952 9.89096L16.7765 11.3024L16.4715 12.6379L16.319 13.8976L16.3005 14.8129L16.3015 15.6552L16.3625 16.6066L16.4734 17.5608L16.624 18.3993L16.8477 19.3221L17.1111 20.1523L17.4752 21.1454L17.8791 21.9969L18.4457 22.9687L19.0326 23.8202L19.8625 24.853L20.7322 25.7647L21.6528 26.6032L22.4522 27.2039L23.15 27.7481C23.6833 28.0915 23.3136 27.8842 23.7221 28.1026C23.9282 28.2127 24.4957 28.5607 24.6695 28.5746C24.6149 28.3839 24.4791 28.2247 24.2887 27.7166C24.1399 27.3187 24.1611 27.2391 24.0327 26.7467C23.479 23.8405 23.4264 22.0274 23.9356 18.9426C24.1297 17.7635 25.0123 14.8851 25.8173 13.4015C26.4662 12.2066 26.9939 10.934 27.542 9.93447C25.5678 12.6666 24.1602 14.1225 23.1214 17.5479C22.5345 19.4804 22.1759 20.6641 21.9522 22.728C21.8986 23.2241 22.1768 24.6244 20.9633 24.4754C20.4087 24.4079 19.5991 23.7998 18.8107 22.4217C18.3043 21.7331 17.9198 20.5679 17.7377 20.1329C17.5159 19.5285 17.222 18.5317 17.161 18.1365C17.0981 17.7228 16.8883 17.0731 16.868 16.1614C16.8634 15.2979 17.9069 13.8531 19.1638 16.0161C20.0668 17.5701 20.9106 16.7093 20.723 15.1091C20.4069 12.4103 18.7461 11.4088 18.8339 8.69241C18.9004 6.65902 20.3219 6.36655 21.1546 7.49662C21.3764 7.79742 22.1925 10.4148 23.6639 9.17368C25.1778 7.89645 24.3109 5.72424 24.4347 3.90002C24.4966 2.98653 24.8404 1.84905 25.8063 1.7639C26.3312 1.7167 26.4791 1.75928 26.7591 2.10728C27.1778 2.90878 26.7065 4.20545 27.2157 4.66358C28.2518 5.59559 28.7425 4.3017 30.0466 2.322C31.3923 0.279358 34.8526 0.714357 36.214 2.8042C37.5634 4.88664 36.2778 8.33608 33.8027 8.46658C32.8859 8.51563 31.0559 8.94508 31.4191 10.3843C31.8849 12.2668 33.3184 10.6777 34.3998 11.9049C35.0976 12.6972 34.3545 13.6227 33.4644 14.203C32.1742 15.048 31.1788 14.8703 29.6982 15.3025C28.8091 15.5626 27.2259 16.2512 27.6852 17.7219C28.1945 19.3536 30.7389 17.8699 31.1021 19.3091C31.7555 21.8988 26.6445 20.9668 25.7092 23.4509C24.8062 25.8406 26.3479 28.8365 28.9071 29.1558C31.091 29.4316 32.2814 28.1294 33.604 26.5134C33.9376 26.1062 34.4081 24.9984 34.8619 25.1409C35.36 25.2177 35.2685 25.6934 35.3379 25.9989C35.5236 26.8124 34.7768 27.7324 35.8462 28.3201C36.9719 28.9393 38.3231 27.7166 38.593 26.1081C38.8111 24.8132 38.4405 24.0404 38.7437 22.7382C39.1817 20.8307 40.5385 20.2856 41.057 21.8812C41.5376 23.3648 42.8472 23.6943 43.6698 22.5883C44.1134 21.9913 44.4822 20.466 44.0072 19.1573C43.4221 17.546 42.6347 16.8435 42.1042 15.21C41.9341 14.6843 41.6716 13.0646 42.557 13.2599C43.0857 13.3756 44.3556 15.9828 45.4037 14.1706C45.9194 13.2775 45.4 11.5856 44.8953 10.4342C44.3639 9.22273 44.6412 9.73548 44.0386 8.43141C43.9665 8.27592 43.5617 7.60491 43.2761 7.00054C43.0857 6.65069 41.9424 4.69505 41.0533 4.82277C40.0921 4.95975 39.9636 6.56554 39.9211 7.20231Z" fill="#00604D"/>
</svg>
